REM MD5 f3996df47605a80858cf15ffc850ecf9
FILE "Official U.S. PlayStation Magazine Demo Disc 54 (USA).bin" BINARY
  TRACK 01 MODE2/2352
    INDEX 01 00:00:00
  TRACK 02 AUDIO
    INDEX 00 36:48:12
    INDEX 01 36:50:12
  TRACK 03 AUDIO
    INDEX 00 37:35:66
    INDEX 01 37:37:66
  TRACK 04 AUDIO
    INDEX 00 40:11:46
    INDEX 01 40:13:46
REM LEADOUT 40:19:42
